# xmcd
#
# Track frame offsets: 
#        150
#        40921
#        76040
#        98153
#        120911
#        157482
#        186144
#        213579
#
# Disc length: 3298 seconds
#
# Revision: 2
# Processed by: cddbd v1.5.1PL2 Copyright (c) Steve Scherf et al.
# Submitted via: ExactAudioCopy v0.95b1
#
DISCID=630ce008
DTITLE=Jimmy McGriff - Feelin' It
DYEAR=2001
DGENRE=Jazz
TTITLE0=Stan's Shuffle
TTITLE1=Hard Times
TTITLE2=Us
TTITLE3=Feelin' It
TTITLE4=Sermonizing
TTITLE5=All Blues
TTITLE6=Just In Time
TTITLE7=City Lights
EXTD=
EXTT0=
EXTT1=
EXTT2=
EXTT3=
EXTT4=
EXTT5=
EXTT6=
EXTT7=
PLAYORDER=
